# xmcd
#
# Track frame offsets: 
#        150
#        11940
#        27198
#        38204
#        50466
#        60749
#        73472
#        87296
#        99239
#        111152
#        127734
#        140192
#        152413
#        165147
#
# Disc length: 2348 seconds
#
# Revision: 2
# Processed by: cddbd v1.5.2PL0 Copyright (c) Steve Scherf et al.
# Submitted via: ExactAudioCopy v0.99pb5
#
DISCID=b5092a0e
DTITLE=Doyle Lawson and QuickSilver - Just Over In Heaven
DYEAR=2000
DGENRE=Bluegrass
TTITLE0=I'll Keep On Sailing
TTITLE1=The Only Thing That Matters
TTITLE2=The Man Upstairs
TTITLE3=God Is Watching Over Me
TTITLE4=Listen To The Bells
TTITLE5=The Right Hand Of Fellowship
TTITLE6=Safe With You At Home
TTITLE7=We Need The Light
TTITLE8=Gonna Row My Boat
TTITLE9=Is That The Bells Of Heaven
TTITLE10=Heaven's Not So Far Away
TTITLE11=I Am Glad
TTITLE12=Great White Angel
TTITLE13=Just Over In Heaven
EXTD=\nYEAR: 2000  ID3G:  89
EXTT0=
EXTT1=
EXTT2=
EXTT3=
EXTT4=
EXTT5=
EXTT6=
EXTT7=
EXTT8=
EXTT9=
EXTT10=
EXTT11=
EXTT12=
EXTT13=
PLAYORDER=
